<svg width="90" height="91" viewBox="0 0 90 91" fill="none" xmlns="http://www.w3.org/2000/svg">
<path d="M15 15.3022H75.2365H86.2365V66.1219L75.2365 77.3022H2.99998V26.8957L15 15.3022Z" fill="#7287FD"/>
<path d="M49.68 46.5902C49.68 50.0462 48.96 53.1022 47.52 55.7582C46.08 58.4142 44.128 60.5102 41.664 62.0462L46.032 68.8142H40.704L37.536 63.9662C35.712 64.5102 33.856 64.7822 31.968 64.7822C28.768 64.7822 25.808 64.0462 23.088 62.5742C20.4 61.0702 18.256 58.9422 16.656 56.1902C15.056 53.4382 14.256 50.2382 14.256 46.5902C14.256 42.9102 15.056 39.7102 16.656 36.9902C18.256 34.2382 20.4 32.1262 23.088 30.6542C25.808 29.1822 28.768 28.4462 31.968 28.4462C35.168 28.4462 38.112 29.1822 40.8 30.6542C43.52 32.1262 45.68 34.2382 47.28 36.9902C48.88 39.7102 49.68 42.9102 49.68 46.5902ZM19.968 46.6382C19.968 49.4222 20.512 51.8222 21.6 53.8382C22.688 55.8222 24.144 57.3422 25.968 58.3982C27.824 59.4222 29.824 59.9342 31.968 59.9342C32.96 59.9342 33.888 59.8382 34.752 59.6462L31.536 54.4142H36.912L38.976 57.7742C40.544 56.6542 41.76 55.1502 42.624 53.2622C43.52 51.3742 43.968 49.1662 43.968 46.6382C43.968 43.8222 43.424 41.4222 42.336 39.4382C41.28 37.4222 39.84 35.9022 38.016 34.8782C36.224 33.8542 34.208 33.3422 31.968 33.3422C29.728 33.3422 27.696 33.8542 25.872 34.8782C24.048 35.9022 22.608 37.4222 21.552 39.4382C20.496 41.4222 19.968 43.8222 19.968 46.6382Z" fill="#EFF1F5"/>
<path d="M57.2655 46.4942H53.3775V42.2702H57.2655V33.2942L62.4975 32.1422V42.2702H67.5855V46.4942H62.4975V64.3022H57.2655V46.4942Z" fill="#EFF1F5"/>
<path d="M71.856 29.6862L66.704 22.6142H70.8L73.808 27.1582L76.656 22.6142H80.848L75.664 29.4942L81.296 37.3022H77.328L73.84 32.1182L70.512 37.3022H66.352L71.856 29.6862Z" fill="#EFF1F5"/>
</svg>
